<svg xmlns="http://www.w3.org/2000/svg" viewBox="0 0 152 348" width="152" height="348">
	<style>
		tspan { white-space:pre }
		.shp0 { fill: #ffffff } 
		.shp1 { fill: #f78b1f } 
	</style>
	<g id="pagination">
		<g id="white_ellips">
			<path id="Эллипс 4 копия 3" class="shp0" d="M71.03,51c0,7.18 6.04,13 13.5,13c7.46,0 13.5,-5.82 13.5,-13c0,-7.18 -6.04,-13 -13.5,-13c-7.46,0 -13.5,5.82 -13.5,13z" />
			<path id="Эллипс 4 копия copy" class="shp0" d="M71.38,132.86c0,7.26 5.96,13.14 13.31,13.14c7.35,0 13.31,-5.88 13.31,-13.14c0,-7.26 -5.96,-13.14 -13.31,-13.14c-7.35,0 -13.31,5.88 -13.31,13.14z" />
		</g>
		<g id="blue_ellips">
			<path id="Эллипс 4 копия 2 copy" class="shp1" d="M71,92c0,7.18 6.04,13 13.5,13c7.46,0 13.5,-5.82 13.5,-13c0,-7.18 -6.04,-13 -13.5,-13c-7.46,0 -13.5,5.82 -13.5,13z" />
		</g>
	</g>
</svg>